<?xml version="1.0" standalone="no"?><!DOCTYPE svg PUBLIC "-//W3C//DTD SVG 1.1//EN" "http://www.w3.org/Graphics/SVG/1.1/DTD/svg11.dtd"><svg class="icon" width="200px" height="200.00px" viewBox="0 0 1024 1024" version="1.1" xmlns="http://www.w3.org/2000/svg"><path fill="#333333" d="M723.477035 306.361217l-31.043027 0c-11.435845-7.917588-25.110123-12.818377-39.871898-13.520216-19.06142-66.812642-53.757634-81.20487-80.081122-81.20487-14.637922 0-27.16932 6.029571-36.776557 14.137471-14.94806-16.946841-34.413263-28.339387-59.743906-28.339387-52.656039 0-80.17074 49.255594-94.39078 95.313139l-78.858694 0c-42.310713 0-76.730018 34.423333-76.730018 76.734045l0 365.210958c0 42.310713 34.419305 76.734045 76.730018 76.734045l420.766991 0c42.444636 0 76.979739-34.531076 76.979739-76.979739L800.457781 383.340956C800.456774 340.892293 765.921671 306.361217 723.477035 306.361217zM572.480988 243.122214c20.390584 0 36.2026 16.685035 47.130946 49.625142l-49.614066 0c-4.187873-13.74275-9.558904-27.76845-16.432293-40.685508C558.420044 247.165087 565.032635 243.122214 572.480988 243.122214zM475.960525 228.920298c30.789278 0 49.565732 30.747993 60.860605 63.827058L414.788774 292.747356C426.232674 259.66527 445.152115 228.920298 475.960525 228.920298zM257.468122 734.692359 257.468122 369.480394c0-24.95304 20.293917-45.246957 45.242929-45.246957l70.835377 0c-1.4359 6.956965-2.577773 13.47591-3.482007 19.313155-10.685673 4.740685-18.142081 15.436427-18.142081 27.879214 0 16.841112 13.652125 30.493237 30.493237 30.493237 16.841112 0 30.493237-13.652125 30.493237-30.493237 0-9.624355-4.463776-18.202498-11.427789-23.791028 1.117706-6.959986 2.585828-14.940004 4.486935-23.402348L545.503994 324.232431c1.833642 8.328421 3.252424 16.191634 4.332873 23.070057-7.206687 5.577454-11.851712 14.305631-11.851712 24.123319 0 16.841112 13.652125 30.493237 30.493237 30.493237 16.841112 0 30.493237-13.652125 30.493237-30.493237 0-12.245426-7.221791-22.79919-17.636596-27.650638-0.886109-5.897662-2.013885-12.496155-3.439715-19.542738l70.977356 0c24.949012 0 45.242929 20.293917 45.242929 45.246957l0 365.210958c0 24.95304-20.293917 45.246957-45.242929 45.246957L302.711051 779.937302C277.762039 779.939316 257.468122 759.644392 257.468122 734.692359zM768.969686 734.445659c0 25.082935-20.409715 45.492651-45.492651 45.492651l-12.68546 0c9.302134-12.696537 14.811116-28.337373 14.811116-45.246957L725.60269 369.480394c0-11.275741-2.463988-21.979539-6.851236-31.633095l4.725581 0c25.082935 0 45.492651 20.409715 45.492651 45.492651L768.969686 734.445659zM504.365363 16.42323c-277.78822 0-503.788385 226.000165-503.788385 503.788385 0 277.792247 226.000165 503.788385 503.788385 503.788385S1008.153748 798.003863 1008.153748 520.211615C1008.153748 242.423396 782.153582 16.42323 504.365363 16.42323zM504.365363 992.512911c-260.426519 0-472.301296-211.874777-472.301296-472.301296S243.937837 47.910319 504.365363 47.910319 976.666659 259.78409 976.666659 520.211615 764.791882 992.512911 504.365363 992.512911z" /></svg>